<?xml version="1.0" encoding="UTF-8"?><svg id="Layer_1" xmlns="http://www.w3.org/2000/svg" viewBox="0 0 36.38 9.44"><defs><style>.cls-1{opacity:.5;}.cls-2{fill:none;stroke:#9db5b2;stroke-miterlimit:10;stroke-width:.1px;}.cls-3{fill:#acc18a;font-family:Ribeye-Regular, Ribeye;font-size:4.16px;}</style></defs><text class="cls-3" transform="translate(0 5.98)"><tspan x="0" y="0">Hibbier Designs </tspan></text><g class="cls-1"><line class="cls-2" x1="12.77" y1="2.82" x2="17.71" y2="4.83"/><line class="cls-2" x1="12.8" y1="6.68" x2="17.45" y2="4.72"/><path class="cls-2" d="M12.77,2.82c.54,1.23.55,2.63.03,3.86"/><path class="cls-2" d="M13.77,3.23c.43.97.43,2.06.02,3.03"/><path class="cls-2" d="M14.78,3.64c.31.7.32,1.5.02,2.21"/><path class="cls-2" d="M15.78,4.04c.19.44.2.94,0,1.38"/><line class="cls-2" x1="12.8" y1="6.68" x2="17.45" y2="4.72"/><line class="cls-2" x1="15.55" y1="9.4" x2="17.45" y2="4.72"/><path class="cls-2" d="M12.8,6.69c1.25.49,2.25,1.47,2.75,2.71"/><path class="cls-2" d="M13.8,6.26c.98.38,1.77,1.15,2.16,2.13"/><path class="cls-2" d="M14.79,5.84c.72.28,1.28.84,1.57,1.55"/><path class="cls-2" d="M15.79,5.42c.45.17.8.52.98.97"/><line class="cls-2" x1="15.55" y1="9.4" x2="17.45" y2="4.72"/><line class="cls-2" x1="19.41" y1="9.37" x2="17.45" y2="4.72"/><path class="cls-2" d="M15.55,9.4c1.23-.54,2.63-.55,3.86-.03"/><path class="cls-2" d="M15.96,8.4c.97-.43,2.06-.43,3.03-.02"/><path class="cls-2" d="M16.36,7.39c.7-.31,1.5-.32,2.21-.02"/><path class="cls-2" d="M16.77,6.39c.44-.19.94-.2,1.38,0"/><line class="cls-2" x1="19.41" y1="9.37" x2="17.45" y2="4.72"/><line class="cls-2" x1="22.12" y1="6.62" x2="17.45" y2="4.72"/><path class="cls-2" d="M19.41,9.37c.49-1.25,1.47-2.25,2.71-2.75"/><path class="cls-2" d="M18.99,8.37c.38-.98,1.15-1.77,2.13-2.16"/><path class="cls-2" d="M18.57,7.38c.28-.72.84-1.28,1.55-1.57"/><path class="cls-2" d="M18.15,6.38c.17-.45.52-.8.97-.98"/><line class="cls-2" x1="22.12" y1="6.62" x2="17.45" y2="4.72"/><line class="cls-2" x1="22.1" y1="2.76" x2="17.45" y2="4.72"/><path class="cls-2" d="M22.12,6.62c-.54-1.23-.55-2.63-.03-3.86"/><path class="cls-2" d="M21.12,6.21c-.43-.97-.43-2.06-.02-3.03"/><path class="cls-2" d="M20.12,5.81c-.31-.7-.32-1.5-.02-2.21"/><path class="cls-2" d="M19.12,5.4c-.19-.44-.2-.94,0-1.38"/><line class="cls-2" x1="22.1" y1="2.76" x2="17.45" y2="4.72"/><line class="cls-2" x1="19.35" y1=".05" x2="17.45" y2="4.72"/><path class="cls-2" d="M22.1,2.76c-1.25-.49-2.25-1.47-2.75-2.71"/><path class="cls-2" d="M21.1,3.18c-.98-.38-1.77-1.15-2.16-2.13"/><path class="cls-2" d="M20.1,3.6c-.72-.28-1.28-.84-1.57-1.55"/><path class="cls-2" d="M19.11,4.02c-.45-.17-.8-.52-.98-.97"/><path class="cls-2" d="M19.35.05c-1.23.54-2.63.55-3.86.03"/><path class="cls-2" d="M18.94,1.05c-.97.43-2.06.43-3.03.02"/><path class="cls-2" d="M18.53,2.05c-.7.31-1.5.32-2.21.02"/><path class="cls-2" d="M18.13,3.05c-.44.19-.94.2-1.38,0"/><line class="cls-2" x1="15.48" y1=".07" x2="17.45" y2="4.72"/><path class="cls-2" d="M15.48.07c-.49,1.25-1.47,2.25-2.71,2.75"/><path class="cls-2" d="M15.91,1.07c-.38.98-1.15,1.77-2.13,2.16"/><path class="cls-2" d="M16.33,2.07c-.28.72-.84,1.28-1.55,1.57"/><path class="cls-2" d="M16.75,3.06c-.17.45-.52.8-.97.98"/></g></svg>